# xmcd
#
# Track frame offsets: 
#        150
#        19912
#        39610
#        57486
#        81605
#        102586
#        126404
#        145448
#        164276
#        186335
#        205603
#        219667
#        238470
#        272926
#
# Disc length: 4426 seconds
#
# Revision: 0
# Processed by: cddbd v1.5PL3 Copyright (c) Steve Scherf et al.
# Submitted via: ExactAudioCopy v0.95a3
#
DISCID=e711480e
DTITLE=Keb´ Mo´ - slow down
DYEAR=1900
DGENRE=Blues
TTITLE0=Muddy water
TTITLE1=I was wrong
TTITLE2=Everything I need
TTITLE3=Henry
TTITLE4=Soon as I get paid
TTITLE5=A better man
TTITLE6=I don´t know
TTITLE7=A letter to Tracy
TTITLE8=slow down
TTITLE9=rainmaker
TTITLE10=Love in vain
TTITLE11=God trying to get your attention
TTITLE12=I´m telling you now
TTITLE13=test
EXTD=
EXTT0=
EXTT1=
EXTT2=
EXTT3=
EXTT4=
EXTT5=
EXTT6=
EXTT7=
EXTT8=
EXTT9=
EXTT10=
EXTT11=
EXTT12=
EXTT13=
PLAYORDER=
